<?xml version="1.0" standalone="no"?>
<!DOCTYPE svg PUBLIC "-//W3C//DTD SVG 20010904//EN"
 "http://www.w3.org/TR/2001/REC-SVG-20010904/DTD/svg10.dtd">
<svg version="1.0" xmlns="http://www.w3.org/2000/svg"
 width="927.000000pt" height="383.000000pt" viewBox="0 0 927.000000 383.000000"
 preserveAspectRatio="xMidYMid meet">

<g transform="translate(0.000000,383.000000) scale(0.100000,-0.100000)"
fill="#000000" stroke="none">
<path d="M130 3103 c0 -635 1 -647 49 -742 31 -59 100 -124 169 -158 l57 -28
1125 0 1125 0 63 29 c80 37 161 122 194 203 23 58 23 59 23 528 0 469 0 470
-23 528 -31 76 -113 164 -189 202 l-58 30 -1267 3 -1268 2 0 -597z m2383 327
c48 -6 101 -16 118 -23 l30 -12 2 -108 c2 -92 0 -106 -13 -101 -200 85 -372
61 -466 -67 -52 -70 -73 -216 -45 -315 53 -194 270 -257 511 -150 24 10 18
-194 -6 -207 -65 -37 -259 -56 -371 -38 -178 30 -311 145 -365 314 -24 76 -29
236 -9 317 52 211 213 358 423 389 88 12 92 12 191 1z m-1539 -39 c81 -32 140
-89 167 -159 28 -75 24 -216 -8 -277 -66 -127 -203 -194 -395 -195 l-78 0 0
-170 0 -170 -115 0 -115 0 0 501 0 501 243 -4 c225 -4 246 -6 301 -27z m684
-343 c-3 -357 -4 -375 -25 -427 -44 -107 -113 -175 -207 -204 -50 -15 -211
-14 -248 1 l-28 12 0 105 c0 58 1 105 3 105 1 0 20 -9 42 -20 80 -41 174 -17
212 52 16 30 18 68 21 378 1 190 4 351 7 358 3 8 36 12 115 12 l111 0 -3 -372z"/>
<path d="M660 3090 l0 -150 75 0 c132 0 185 43 185 148 0 107 -55 151 -187
152 l-73 0 0 -150z"/>
<path d="M5952 3689 c-180 -30 -359 -164 -444 -332 -87 -174 -97 -446 -22
-626 l14 -34 29 44 c27 44 84 99 102 99 16 0 10 -22 -26 -86 -45 -81 -45 -94
1 -24 19 30 61 81 92 113 l57 57 1 123 c1 141 14 194 72 283 67 104 168 151
303 142 176 -11 308 -166 348 -408 l16 -100 55 -36 c30 -20 70 -50 88 -67 26
-25 32 -28 32 -13 0 13 5 16 18 11 50 -21 59 -3 68 150 15 231 -50 414 -194
552 -67 65 -189 127 -287 148 -76 16 -239 18 -323 4z"/>
<path d="M3601 3649 c-183 -28 -317 -113 -375 -238 -17 -38 -21 -65 -21 -151
0 -93 3 -111 27 -163 15 -32 50 -79 79 -108 49 -48 81 -65 348 -191 122 -58
175 -142 136 -214 -10 -19 -28 -40 -41 -49 -32 -21 -129 -45 -179 -45 -100 1
-263 56 -342 116 l-33 25 0 -150 0 -150 58 -21 c133 -50 359 -65 518 -35 251
48 381 219 344 453 -26 159 -102 232 -379 359 -134 62 -180 91 -204 132 -43
73 0 157 96 186 103 31 282 7 385 -50 24 -14 46 -25 48 -25 2 0 4 61 4 135 0
125 -1 135 -21 145 -64 35 -327 58 -448 39z"/>
<path d="M4300 2955 l0 -675 150 0 150 0 0 235 0 235 123 0 c206 0 346 49 447
156 92 97 127 219 108 374 -17 141 -81 236 -198 295 -93 47 -158 55 -482 55
l-298 0 0 -675z m532 435 c86 -24 131 -91 132 -195 1 -86 -22 -137 -83 -180
-41 -29 -48 -30 -162 -34 l-119 -3 0 211 0 211 98 0 c53 0 114 -5 134 -10z"/>
<path d="M6980 2955 l0 -675 150 0 150 0 0 260 0 260 55 0 c106 0 133 -28 305
-313 l125 -207 173 0 c136 0 172 3 166 13 -4 6 -70 110 -147 230 -145 227
-215 315 -276 347 -32 16 -34 19 -16 25 113 39 197 106 245 197 30 55 35 74
38 155 5 115 -14 185 -70 248 -52 59 -107 91 -203 115 -70 18 -111 20 -387 20
l-308 0 0 -675z m524 445 c83 -19 129 -79 129 -169 0 -62 -16 -102 -60 -143
-47 -45 -92 -58 -198 -58 l-95 0 0 190 0 190 93 0 c50 0 110 -5 131 -10z"/>
<path d="M8050 3510 l0 -120 195 0 195 0 0 -555 0 -555 150 0 150 0 0 555 0
555 195 0 195 0 0 120 0 120 -540 0 -540 0 0 -120z"/>
<path d="M6108 3101 c-41 -13 -97 -50 -108 -71 -6 -10 -10 -45 -10 -78 l0 -58
-74 -33 c-95 -42 -179 -117 -250 -224 -96 -145 -131 -260 -124 -403 5 -105 27
-162 87 -227 48 -51 47 -51 31 -287 -5 -80 -14 -302 -20 -495 -5 -192 -15
-379 -20 -415 -7 -43 -31 -108 -71 -192 -33 -70 -63 -145 -66 -166 -5 -37 -3
-42 25 -56 114 -59 181 28 217 279 25 169 33 204 74 309 33 84 42 121 50 214
6 79 15 120 28 140 10 16 33 51 51 78 39 58 67 144 90 281 l17 100 85 -20 c47
-10 90 -23 96 -28 32 -26 -97 -349 -169 -426 -11 -13 -18 -25 -15 -28 10 -10
59 37 78 75 23 46 64 80 96 80 22 0 23 3 22 73 0 75 28 172 59 203 14 14 17
14 32 -1 13 -13 16 -40 15 -158 0 -127 -3 -152 -29 -232 -73 -234 -99 -392
-81 -489 7 -39 19 -43 85 -30 29 6 33 12 56 85 37 116 54 199 61 291 5 73 12
96 55 183 42 86 63 149 85 262 4 21 8 22 50 16 37 -5 46 -3 42 7 -4 14 -15 21
-60 39 -26 10 -28 15 -28 63 0 29 7 100 15 158 20 148 19 236 -5 312 -11 34
-20 65 -20 67 0 14 68 -63 101 -112 77 -117 141 -327 125 -410 -6 -33 -10 -36
-50 -42 l-43 -7 -7 -87 c-7 -95 -4 -114 27 -148 15 -17 32 -23 60 -23 103 0
166 170 167 445 0 128 -10 199 -46 321 -72 251 -200 441 -362 540 -109 67
-109 67 -115 134 -6 74 -31 125 -80 164 -33 27 -45 30 -120 33 -45 1 -94 -2
-109 -6z m-226 -613 c-7 -7 -12 -19 -12 -27 0 -8 -23 -64 -52 -124 -72 -154
-75 -222 -10 -280 16 -15 25 -16 41 -8 26 14 31 14 31 -2 0 -8 12 -24 26 -38
14 -13 32 -36 40 -52 13 -24 13 -28 -2 -34 -9 -3 -26 0 -38 7 -11 8 -46 28
-76 46 -94 55 -102 64 -107 121 -4 36 1 73 17 125 39 129 115 278 143 278 8 0
8 -3 -1 -12z m303 -417 c68 -38 125 -152 125 -248 0 -40 -2 -43 -22 -38 -13 3
-61 14 -108 24 -135 31 -140 34 -130 73 4 18 16 67 25 108 28 120 33 124 110
81z m-448 -280 c-18 -7 -39 27 -44 70 l-4 44 28 -55 c16 -30 25 -57 20 -59z
m115 -51 c-5 -53 -35 -112 -71 -143 -75 -63 -90 -13 -30 102 41 77 45 82 74
79 28 -3 30 -5 27 -38z"/>
<path d="M6710 2787 c0 -18 28 -55 51 -67 33 -18 36 17 3 51 -29 30 -54 38
-54 16z"/>
<path d="M5515 2508 c-15 -24 -43 -62 -61 -85 -35 -42 -42 -67 -24 -78 22 -14
50 8 74 58 21 43 50 147 41 147 -1 0 -15 -19 -30 -42z"/>
<path d="M2615 2005 c-207 -38 -394 -177 -483 -357 -56 -114 -75 -206 -75
-358 0 -196 38 -323 134 -442 129 -161 288 -229 535 -229 142 0 224 10 322 42
l62 21 0 139 c0 76 -2 139 -5 139 -3 0 -24 -9 -46 -21 -105 -53 -287 -74 -397
-45 -199 53 -312 250 -282 493 19 150 100 268 224 327 140 66 295 56 494 -31
10 -4 12 26 10 143 l-3 148 -30 8 c-121 36 -334 47 -460 23z"/>
<path d="M4955 2005 c-247 -46 -441 -213 -520 -448 -92 -275 -35 -584 140
-759 126 -126 270 -179 491 -179 145 0 227 11 322 43 l62 22 0 138 c0 76 -2
138 -5 138 -3 0 -24 -9 -46 -21 -105 -53 -287 -74 -397 -45 -199 53 -312 250
-282 493 32 253 234 401 499 364 72 -10 126 -27 219 -68 10 -4 12 26 10 143
l-3 148 -30 8 c-121 36 -334 47 -460 23z"/>
<path d="M8355 2005 c-180 -33 -305 -125 -352 -260 -11 -33 -17 -80 -17 -136
0 -77 3 -93 32 -152 42 -85 118 -155 225 -206 45 -22 125 -60 178 -84 122 -58
169 -106 169 -171 0 -90 -77 -136 -228 -136 -128 0 -224 30 -330 102 l-43 29
3 -153 3 -152 49 -19 c94 -34 187 -48 331 -48 267 0 431 74 505 226 35 74 41
236 11 316 -42 112 -131 185 -335 275 -155 69 -220 113 -240 163 -66 166 221
240 473 121 34 -17 65 -30 67 -30 2 0 4 63 4 139 l0 140 -55 16 c-122 35 -320
44 -450 20z"/>
<path d="M3280 1994 c0 -4 97 -205 215 -447 l215 -439 0 -234 0 -234 150 0
150 0 0 239 0 239 220 434 c121 239 220 438 220 441 0 4 -71 7 -158 7 l-159 0
-13 -27 c-64 -141 -217 -499 -229 -542 l-17 -55 -13 55 c-8 29 -64 169 -125
309 l-111 255 -172 3 c-95 1 -173 -1 -173 -4z"/>
<path d="M6979 1996 c-2 -2 -3 -308 -1 -680 l2 -676 405 0 405 0 0 125 0 125
-255 0 -255 0 0 155 0 155 225 0 226 0 -3 123 -3 122 -222 3 -223 2 0 150 0
150 240 0 240 0 0 125 0 125 -388 0 c-214 0 -391 -2 -393 -4z"/>
<path d="M1217 1866 c-60 -16 -113 -59 -152 -121 -27 -44 -30 -56 -30 -135 0
-78 3 -93 33 -151 l33 -64 -22 -15 c-149 -98 -206 -274 -137 -419 52 -109 155
-164 303 -164 100 1 150 15 228 65 l49 31 36 -42 37 -42 103 3 103 3 -80 94
-79 95 29 43 c42 61 76 140 100 236 11 45 23 90 25 100 5 15 -3 17 -78 17
l-83 0 -13 -66 c-15 -78 -63 -199 -79 -199 -11 0 -193 213 -193 227 0 3 17 17
38 30 108 66 162 150 162 252 0 108 -61 191 -162 221 -61 18 -106 18 -171 1z
m118 -122 c23 -11 39 -28 50 -56 28 -70 -1 -140 -79 -197 l-46 -32 -29 47
c-36 55 -48 119 -32 167 13 38 46 72 76 80 11 3 22 5 23 6 2 0 19 -6 37 -15z
m-60 -554 c43 -52 96 -114 118 -137 35 -36 38 -44 27 -58 -38 -45 -132 -69
-202 -50 -136 35 -175 197 -76 310 22 25 44 43 48 38 4 -4 43 -51 85 -103z"/>
<path d="M6181 1334 c-6 -14 -16 -58 -21 -97 -16 -108 -77 -383 -111 -499 -84
-284 -146 -408 -261 -517 -49 -48 -61 -65 -61 -90 0 -17 3 -34 7 -39 11 -10
110 99 163 181 142 217 281 623 314 912 10 94 5 175 -10 175 -4 0 -13 -12 -20
-26z"/>
<path d="M1982 618 c-25 -25 -12 -47 47 -83 130 -78 293 -137 451 -161 158
-24 632 -33 1746 -34 1126 0 1101 -1 1092 46 -3 19 -28 19 -1313 25 -948 4
-1341 9 -1424 18 -202 22 -381 80 -514 164 -64 41 -68 42 -85 25z"/>
<path d="M6121 392 c-25 -47 -25 -47 514 -50 352 -2 512 1 526 8 13 7 19 19
17 33 l-3 22 -522 3 c-495 2 -523 1 -532 -16z"/>
<path d="M7441 396 c-15 -18 -5 -43 22 -50 12 -3 92 -6 178 -6 164 0 195 7
187 46 -3 18 -14 19 -189 22 -150 2 -188 0 -198 -12z"/>
<path d="M8071 397 c-15 -19 -5 -44 22 -51 12 -3 83 -6 158 -6 144 0 175 8
167 46 -3 18 -14 19 -169 22 -133 2 -169 0 -178 -11z"/>
<path d="M8601 397 c-15 -19 -5 -44 22 -51 12 -3 83 -6 158 -6 144 0 175 8
167 46 -3 18 -14 19 -169 22 -133 2 -169 0 -178 -11z"/>
</g>
</svg>
